<?xml version="1.0" encoding="utf-8"?>
<svg fill='#82f4d3' version="1.1" id="Layer_1" xmlns="http://www.w3.org/2000/svg" xmlns:xlink="http://www.w3.org/1999/xlink" x="0px" y="0px"
     viewBox="0 0 32 32" width='35' height='35' style="enable-background:new 0 0 32 32;" xml:space="preserve">
    <g stroke='#e9e9e9'>
        <path d="M28.8,22H9.2l-5-18H1V2h4.8l5,18h16.4l1.6-9H13V9h18.2L28.8,22z"/>
        <path d="M12,30c-1.7,0-3-1.3-3-3c0-1.7,1.3-3,3-3c1.7,0,3,1.3,3,3C15,28.7,13.7,30,12,30z M12,26c-0.6,0-1,0.4-1,1c0,0.6,0.4,1,1,1
        c0.6,0,1-0.4,1-1C13,26.4,12.6,26,12,26z"/>
        <path d="M25,30c-1.7,0-3-1.3-3-3c0-1.7,1.3-3,3-3c1.7,0,3,1.3,3,3C28,28.7,26.7,30,25,30z M25,26c-0.6,0-1,0.4-1,1c0,0.6,0.4,1,1,1
        c0.6,0,1-0.4,1-1C26,26.4,25.6,26,25,26z"/>
        <path d="M15,13h2v5h-2V13z"/>
        <path d="M21,13h2v5h-2V13z"/>
    </g>
</svg>
